<svg xmlns="http://www.w3.org/2000/svg" width="101.118" height="105.555" viewBox="0 0 101.118 105.555">
    <defs>
        <style>
            .cls-1{fill:none;stroke:#000;stroke-linejoin:round;stroke-linecap:round}
        </style>
    </defs>
    <g id="left1" transform="rotate(-11 -1014.497 6937.272)">
        <g id="组_639" transform="rotate(62.03 379.492 1342.23)">
            <g id="组_56" transform="translate(19.952 14.768)">
                <path id="路径_54" d="M2.909 0H0" class="cls-1"/>
            </g>
            <g id="组_57" transform="translate(18.982 5.131)">
                <path id="路径_55" d="M1.94 0L0 1.94" class="cls-1"/>
            </g>
            <g id="组_58" transform="translate(12.193)">
                <path id="路径_56" d="M0 0v2.909" class="cls-1"/>
            </g>
            <g id="组_59" transform="translate(1.94 5.131)">
                <path id="路径_57" d="M0 0l1.94 1.94" class="cls-1"/>
            </g>
            <g id="组_60" transform="translate(0 14.768)">
                <path id="路径_58" d="M0 0h2.909" class="cls-1"/>
            </g>
        </g>
        <path id="路径_576" fill="#b8e1ff" d="M6.3 0A6.3 6.3 0 1 1 0 6.3 6.3 6.3 0 0 1 6.3 0z" transform="rotate(34 53.986 2442.165)"/>
        <g id="组_3" transform="rotate(9 -1410.184 8452.439)">
            <g id="组_2">
                <path id="路径_1" fill="none" stroke="#000" stroke-linejoin="round" d="M13.237 74.37a23.879 23.879 0 0 0-2.807-11.227L.981 45.393a6.618 6.618 0 0 1 11.276-6.933L24.27 57.37l-7.136-38.923a6.618 6.618 0 1 1 12.94-2.785l7.436 32.882V6.62a6.62 6.62 0 0 1 13.24 0v41.955l7.431-34.515a6.62 6.62 0 0 1 12.944 2.78L63.989 66.2l13.182-11.5a6.62 6.62 0 1 1 8.941 9.766l-23.2 30.892a19.857 19.857 0 0 1-14.369 6.142H33.1c-15.7 0-19.86-12.242-19.86-27.132z"/>
            </g>
        </g>
    </g>
</svg>
