<svg xmlns="http://www.w3.org/2000/svg" width="104.209" height="115.203" viewBox="0 0 104.209 115.203">
    <defs>
        <style>
            .cls-2{fill:none;stroke:#000;stroke-linejoin:round;stroke-linecap:round}
        </style>
    </defs>
    <g id="right2" transform="translate(-1374.031 -337.649)">
        <g id="组_3" transform="rotate(9 -1602.315 8984.875)">
            <g id="组_2" transform="translate(1.001 -23.5)">
                <path id="路径_1" fill="none" stroke="#000" stroke-linejoin="round" d="M75.021 74.369a23.879 23.879 0 0 1 2.807-11.227l9.448-17.749A6.618 6.618 0 0 0 76 38.46L63.989 57.37l7.136-38.923a6.618 6.618 0 1 0-12.939-2.785l-7.437 32.881V6.62a6.62 6.62 0 0 0-13.239 0v41.954L30.079 14.06a6.619 6.619 0 0 0-12.943 2.78l7.135 49.36-13.182-11.5a6.62 6.62 0 1 0-8.941 9.766l23.2 30.891a19.856 19.856 0 0 0 14.369 6.143h15.446c15.7 0 19.859-12.242 19.859-27.131z"/>
            </g>
        </g>
        <g id="组_160" transform="rotate(-11 1315.4 739.12)">
            <g id="组_56" transform="translate(1491.574 382.229)">
                <path id="路径_54" d="M3 0H0" class="cls-2"/>
            </g>
            <g id="组_57" transform="translate(1490.574 372.292)">
                <path id="路径_55" d="M2 0L0 2" class="cls-2"/>
            </g>
            <g id="组_58" transform="translate(1483.573 367)">
                <path id="路径_56" d="M0 0v3" class="cls-2"/>
            </g>
            <g id="组_59" transform="translate(1473 372.292)">
                <path id="路径_57" d="M0 0l2 2" class="cls-2"/>
            </g>
            <g id="组_60" transform="translate(1471 382.229)">
                <path id="路径_58" d="M0 0h3" class="cls-2"/>
            </g>
        </g>
        <circle id="椭圆_2" cx="6.5" cy="6.5" r="6.5" fill="#ffcdca" transform="rotate(-37 1233.183 -1917.01)"/>
    </g>
</svg>
