<svg xmlns="http://www.w3.org/2000/svg" width="210.832" height="105.555" viewBox="0 0 210.832 105.555">
    <defs>
        <style>
            .cls-1,.cls-3{fill:none;stroke:#000;stroke-linejoin:round}.cls-1{stroke-linecap:round}.cls-2{fill:#b8e1ff}
        </style>
    </defs>
    <g id="thumb" transform="translate(-38.959 -128.863)">
        <g id="right1" transform="rotate(9 2055.003 -6966.377)">
            <g id="组_639" transform="rotate(117.97 540.878 586.903)">
                <g id="组_56" transform="translate(19.952)">
                    <path id="路径_54" d="M2.909 0H0" class="cls-1"/>
                </g>
                <g id="组_57" transform="translate(18.982 7.697)">
                    <path id="路径_55" d="M1.94 1.94L0 0" class="cls-1"/>
                </g>
                <g id="组_58" transform="translate(12.193 11.859)">
                    <path id="路径_56" d="M0 2.909V0" class="cls-1"/>
                </g>
                <g id="组_59" transform="translate(1.94 7.697)">
                    <path id="路径_57" d="M0 1.94L1.94 0" class="cls-1"/>
                </g>
                <g id="组_60">
                    <path id="路径_58" d="M0 0h2.909" class="cls-1"/>
                </g>
            </g>
            <path id="路径_576" d="M6.3 12.607A6.3 6.3 0 1 0 0 6.3a6.3 6.3 0 0 0 6.3 6.307z" class="cls-2" transform="rotate(146 598.505 400.463)"/>
            <g id="组_3" transform="rotate(171 681.996 267.449)">
                <g id="组_2">
                    <path id="路径_1" d="M13.237 27.132a23.879 23.879 0 0 1-2.807 11.227L.981 56.108a6.618 6.618 0 0 0 11.276 6.933l12.013-18.91-7.136 38.924a6.618 6.618 0 1 0 12.94 2.785l7.436-32.883v41.925a6.62 6.62 0 0 0 13.24 0V52.926l7.432 34.515a6.62 6.62 0 0 0 12.944-2.78L63.989 35.3l13.182 11.5a6.62 6.62 0 1 0 8.941-9.766l-23.2-30.887A19.857 19.857 0 0 0 48.543 0H33.1C17.4 0 13.24 12.242 13.24 27.132z" class="cls-3"/>
                </g>
            </g>
        </g>
        <g id="left1" transform="rotate(-11 -325.872 6799.406)">
            <g id="组_639-2" transform="rotate(62.03 379.492 1342.23)">
                <g id="组_56-2" transform="translate(19.952 14.768)">
                    <path id="路径_54-2" d="M2.909 0H0" class="cls-1"/>
                </g>
                <g id="组_57-2" transform="translate(18.982 5.131)">
                    <path id="路径_55-2" d="M1.94 0L0 1.94" class="cls-1"/>
                </g>
                <g id="组_58-2" transform="translate(12.193)">
                    <path id="路径_56-2" d="M0 0v2.909" class="cls-1"/>
                </g>
                <g id="组_59-2" transform="translate(1.94 5.131)">
                    <path id="路径_57-2" d="M0 0l1.94 1.94" class="cls-1"/>
                </g>
                <g id="组_60-2" transform="translate(0 14.768)">
                    <path id="路径_58-2" d="M0 0h2.909" class="cls-1"/>
                </g>
            </g>
            <path id="路径_576-2" d="M6.3 0A6.3 6.3 0 1 1 0 6.3 6.3 6.3 0 0 1 6.3 0z" class="cls-2" transform="rotate(34 53.986 2442.165)"/>
            <g id="组_3-2" transform="rotate(9 -1410.184 8452.439)">
                <g id="组_2-2">
                    <path id="路径_1-2" d="M13.237 74.37a23.879 23.879 0 0 0-2.807-11.227L.981 45.393a6.618 6.618 0 0 1 11.276-6.933L24.27 57.37l-7.136-38.923a6.618 6.618 0 1 1 12.94-2.785l7.436 32.882V6.62a6.62 6.62 0 0 1 13.24 0v41.955l7.431-34.515a6.62 6.62 0 0 1 12.944 2.78L63.989 66.2l13.182-11.5a6.62 6.62 0 1 1 8.941 9.766l-23.2 30.892a19.857 19.857 0 0 1-14.369 6.142H33.1c-15.7 0-19.86-12.242-19.86-27.132z" class="cls-3"/>
                </g>
            </g>
        </g>
    </g>
</svg>
